<svg width="1873.000000" height="1138.957397" viewBox="0 0 1873 1138.96" fill="none" xmlns="http://www.w3.org/2000/svg" xmlns:xlink="http://www.w3.org/1999/xlink">
	<desc>
			Created with Pixso.
	</desc>
	<defs>
		<filter id="filter_21_624_dd" x="0.000000" y="0.000000" width="1873.000000" height="1138.957397" filterUnits="userSpaceOnUse" color-interpolation-filters="sRGB">
			<feFlood flood-opacity="0" result="BackgroundImageFix"/>
			<feColorMatrix in="SourceAlpha" type="matrix" values="0 0 0 0 0 0 0 0 0 0 0 0 0 0 0 0 0 0 127 0" result="hardAlpha"/>
			<feOffset dx="0" dy="4"/>
			<feGaussianBlur stdDeviation="1.33333"/>
			<feComposite in2="hardAlpha" operator="out" k2="-1" k3="1"/>
			<feColorMatrix type="matrix" values="0 0 0 0 0 0 0 0 0 0 0 0 0 0 0 0 0 0 0.25 0"/>
			<feBlend mode="normal" in2="BackgroundImageFix" result="effect_dropShadow_1"/>
			<feBlend mode="normal" in="SourceGraphic" in2="effect_dropShadow_1" result="shape"/>
		</filter>
	</defs>
	<g filter="url(#filter_21_624_dd)">
		<path id="Vector 4780" d="M1035.79 323.45L1112 411.83L795 486.45" stroke="#202027" stroke-opacity="1.000000" stroke-width="1.000000" stroke-linecap="round"/>
		<path id="Vector 4781" d="M1026.07 587.45L1150 587.45L1008 766.45" stroke="#202027" stroke-opacity="1.000000" stroke-width="1.000000" stroke-linecap="round"/>
		<path id="Vector" d="M1502.68 381.86C1512.11 384.48 1774.52 495.42 1774.52 495.42L1496.11 525.3L1671.99 751.11L1424.04 596.86L1398.77 858.31L1328.88 582.98L1095.93 713.95L1256.41 521.72L971.63 508.74L1239.3 428.48L1040.4 199.41L1320.04 330.96L1384.03 77.14L1412.77 331.5L1667.48 156.05L1502.68 381.86Z" fill="#BCEC30" fill-opacity="1.000000" fill-rule="nonzero"/>
		<path id="Vector" d="M1774.52 495.42L1496.11 525.3L1671.99 751.11L1424.04 596.86L1398.77 858.31L1328.88 582.98L1095.93 713.95L1256.41 521.72L971.63 508.74L1239.3 428.48L1040.4 199.41L1320.04 330.96L1384.03 77.14L1412.77 331.5L1667.48 156.05L1502.68 381.86C1512.11 384.48 1774.52 495.42 1774.52 495.42Z" stroke="#202027" stroke-opacity="1.000000" stroke-width="1.000000"/>
		<path id="Vector 4782" d="M1166 791.5L1279.76 712.45L1385.88 1130.46" stroke="#202027" stroke-opacity="1.000000" stroke-width="1.000000" stroke-linecap="round"/>
		<path id="Vector 4788" d="M1244.16 801.45L1188 860.22L1268 927.45L1244.16 801.45Z" fill="#BCEC30" fill-opacity="1.000000" fill-rule="nonzero"/>
		<path id="Vector 4788" d="M1244.16 801.45L1268 927.45L1188 860.22L1244.16 801.45Z" stroke="#202027" stroke-opacity="1.000000" stroke-width="1.000000"/>
		<path id="Vector 4791" d="M1286 996.45L1320 1120.46" stroke="#202027" stroke-opacity="1.000000" stroke-width="1.000000" stroke-linecap="round"/>
		<path id="Star 3" d="M109.77 415.23L97 419.95L109.77 424.68L114.5 437.45L119.22 424.68L132 419.95L119.22 415.23L114.5 402.45L109.77 415.23ZM114.5 405.33L110.55 416L99.88 419.95L110.55 423.9L114.5 434.57L118.44 423.9L129.11 419.95L118.44 416L114.5 405.33Z" fill="#202027" fill-opacity="1.000000" fill-rule="evenodd"/>
		<path id="Star 4" d="M984.29 931.74L954 942.95L984.29 954.16L995.5 984.45L1006.71 954.16L1037 942.95L1006.71 931.74L995.5 901.45L984.29 931.74ZM995.5 904.33L985.06 932.52L956.88 942.95L985.06 953.38L995.5 981.57L1005.93 953.38L1034.12 942.95L1005.93 932.52L995.5 904.33Z" fill="#202027" fill-opacity="1.000000" fill-rule="evenodd"/>
		<path id="Star 5" d="M907.5 871.45L902.5 884.96L889 889.95L902.5 894.95L907.5 908.45L912.49 894.95L926 889.95L912.49 884.96L907.5 871.45Z" fill="#BCEC30" fill-opacity="1.000000" fill-rule="evenodd"/>
		<path id="Star 5" d="M902.5 884.96L889 889.95L902.5 894.95L907.5 908.45L912.49 894.95L926 889.95L912.49 884.96L907.5 871.45L902.5 884.96ZM907.5 874.33L903.28 885.73L891.88 889.95L903.28 894.17L907.5 905.57L911.71 894.17L923.11 889.95L911.71 885.73L907.5 874.33Z" fill="#202027" fill-opacity="1.000000" fill-rule="evenodd"/>
		<path id="Star 2" d="M32.5 427.45L24.8 448.25L4 455.95L24.8 463.65L32.5 484.45L40.19 463.65L61 455.95L40.19 448.25L32.5 427.45Z" fill="#BCEC30" fill-opacity="1.000000" fill-rule="evenodd"/>
		<path id="Star 2" d="M24.8 448.25L4 455.95L24.8 463.65L32.5 484.45L40.19 463.65L61 455.95L40.19 448.25L32.5 427.45L24.8 448.25ZM32.5 430.33L25.58 449.03L6.88 455.95L25.58 462.87L32.5 481.57L39.41 462.87L58.11 455.95L39.41 449.03L32.5 430.33Z" fill="#202027" fill-opacity="1.000000" fill-rule="evenodd"/>
	</g>
</svg>
